<svg width="100" height="100" viewBox="0 0 100 100" fill="none" xmlns="http://www.w3.org/2000/svg">
<path d="M66.6667 41.6668C66.6667 46.0871 64.9107 50.3263 61.7851 53.4519C58.6595 56.5776 54.4203 58.3335 50 58.3335C45.5797 58.3335 41.3405 56.5776 38.2149 53.4519C35.0893 50.3263 33.3333 46.0871 33.3333 41.6668M12.9292 25.1418H87.0708M14.1667 22.7793C13.0848 24.2218 12.5 25.9762 12.5 27.7793V83.3335C12.5 85.5436 13.378 87.6633 14.9408 89.2261C16.5036 90.7889 18.6232 91.6668 20.8333 91.6668H79.1667C81.3768 91.6668 83.4964 90.7889 85.0592 89.2261C86.622 87.6633 87.5 85.5436 87.5 83.3335V27.7793C87.5 25.9762 86.9152 24.2218 85.8333 22.7793L77.5 11.6668C76.7238 10.6319 75.7172 9.79183 74.5601 9.21327C73.403 8.63471 72.127 8.3335 70.8333 8.3335H29.1667C27.873 8.3335 26.597 8.63471 25.4399 9.21327C24.2828 9.79183 23.2762 10.6319 22.5 11.6668L14.1667 22.7793Z" stroke="black" stroke-width="8" stroke-linecap="round" stroke-linejoin="round"/>
</svg>
